<svg viewBox="0 0 600 60" fill="none" xmlns="http://www.w3.org/2000/svg">
<path opacity="0.6" d="M600 60L552.36 12.36C544.44 4.44 533.76 0 522.6 0H77.4C66.24 0 55.56 4.44 47.76 12.36L0 60H600Z" fill="#1A1A1A"/>
<path d="M155.76 20.8C156.92 20.8 157.847 21.1533 158.54 21.86C159.247 22.5533 159.6 23.4733 159.6 24.62C159.6 25.7533 159.24 26.66 158.52 27.34C157.813 28.02 156.867 28.36 155.68 28.36H152.28V34H150.5V20.8H155.76ZM155.5 26.94C156.193 26.94 156.753 26.7333 157.18 26.32C157.62 25.8933 157.84 25.34 157.84 24.66C157.84 23.9667 157.627 23.4067 157.2 22.98C156.773 22.5533 156.207 22.34 155.5 22.34H152.28V26.94H155.5ZM168.235 33.24C167.515 33.8533 166.582 34.16 165.435 34.16C164.288 34.16 163.348 33.8533 162.615 33.24C161.882 32.6133 161.515 31.8333 161.515 30.9V27.5C161.515 26.5933 161.888 25.8333 162.635 25.22C163.395 24.5933 164.328 24.28 165.435 24.28C166.542 24.28 167.468 24.5867 168.215 25.2C168.962 25.8133 169.335 26.58 169.335 27.5V30.9C169.335 31.8467 168.968 32.6267 168.235 33.24ZM163.795 32.2C164.195 32.56 164.742 32.74 165.435 32.74C166.128 32.74 166.668 32.56 167.055 32.2C167.442 31.84 167.635 31.3733 167.635 30.8V27.6C167.635 27.08 167.428 26.6333 167.015 26.26C166.602 25.8867 166.075 25.7 165.435 25.7C164.795 25.7 164.262 25.8867 163.835 26.26C163.422 26.6333 163.215 27.08 163.215 27.6V30.8C163.215 31.36 163.408 31.8267 163.795 32.2ZM183.599 24.36H185.519L182.359 34H180.639L178.379 26.9L176.119 34H174.399L171.239 24.36H173.159L175.379 31.98L177.579 24.36H179.199L181.399 31.98L183.599 24.36ZM195.136 29.9L188.876 29.92V30.58C188.876 31.18 189.096 31.6733 189.536 32.06C189.99 32.4467 190.53 32.64 191.156 32.64C191.703 32.64 192.19 32.5 192.616 32.22C193.043 31.94 193.303 31.58 193.396 31.14L194.956 31.46C194.81 32.2333 194.383 32.8733 193.676 33.38C192.97 33.8733 192.13 34.12 191.156 34.12C190.116 34.12 189.21 33.8133 188.436 33.2C187.676 32.5867 187.296 31.7333 187.296 30.64V27.78C187.296 26.7533 187.663 25.9067 188.396 25.24C189.143 24.5733 190.056 24.24 191.136 24.24C192.27 24.24 193.216 24.5733 193.976 25.24C194.75 25.8933 195.136 26.74 195.136 27.78V29.9ZM191.136 25.74C190.536 25.74 190.01 25.94 189.556 26.34C189.103 26.7267 188.876 27.2267 188.876 27.84V28.62L193.476 28.6V27.84C193.476 27.2133 193.25 26.7067 192.796 26.32C192.343 25.9333 191.79 25.74 191.136 25.74ZM202.556 24.4C203.049 24.4 203.442 24.5 203.736 24.7L203.416 26.38C203.136 26.2067 202.729 26.1467 202.196 26.2C201.649 26.2267 201.169 26.4533 200.756 26.88C200.356 27.2933 200.149 27.82 200.136 28.46V34H198.356V24.36H200.136V26.34C200.696 25.0467 201.502 24.4 202.556 24.4ZM213.242 29.9L206.982 29.92V30.58C206.982 31.18 207.202 31.6733 207.642 32.06C208.095 32.4467 208.635 32.64 209.262 32.64C209.809 32.64 210.295 32.5 210.722 32.22C211.149 31.94 211.409 31.58 211.502 31.14L213.062 31.46C212.915 32.2333 212.489 32.8733 211.782 33.38C211.075 33.8733 210.235 34.12 209.262 34.12C208.222 34.12 207.315 33.8133 206.542 33.2C205.782 32.5867 205.402 31.7333 205.402 30.64V27.78C205.402 26.7533 205.769 25.9067 206.502 25.24C207.249 24.5733 208.162 24.24 209.242 24.24C210.375 24.24 211.322 24.5733 212.082 25.24C212.855 25.8933 213.242 26.74 213.242 27.78V29.9ZM209.242 25.74C208.642 25.74 208.115 25.94 207.662 26.34C207.209 26.7267 206.982 27.2267 206.982 27.84V28.62L211.582 28.6V27.84C211.582 27.2133 211.355 26.7067 210.902 26.32C210.449 25.9333 209.895 25.74 209.242 25.74ZM221.809 20.8H223.589V34H221.809V32.92C221.235 33.7467 220.375 34.16 219.229 34.16C218.175 34.16 217.362 33.8933 216.789 33.36C216.229 32.8267 215.949 32.0867 215.949 31.14V27.3C215.949 26.3667 216.235 25.6333 216.809 25.1C217.382 24.5533 218.182 24.28 219.209 24.28C220.382 24.28 221.249 24.6933 221.809 25.52V20.8ZM221.669 31.14V27.3C221.669 26.74 221.482 26.3133 221.109 26.02C220.749 25.7133 220.262 25.56 219.649 25.56C219.062 25.56 218.582 25.7133 218.209 26.02C217.835 26.3267 217.649 26.7533 217.649 27.3V31.14C217.649 31.6733 217.835 32.1 218.209 32.42C218.582 32.7267 219.069 32.88 219.669 32.88C220.255 32.88 220.735 32.7267 221.109 32.42C221.482 32.1 221.669 31.6733 221.669 31.14ZM235.931 24.28C236.984 24.28 237.798 24.5467 238.371 25.08C238.944 25.6133 239.231 26.3467 239.231 27.28V31.12C239.231 32.0667 238.944 32.8133 238.371 33.36C237.798 33.8933 236.991 34.16 235.951 34.16C234.871 34.16 234.051 33.8067 233.491 33.1V34H231.711V20.8H233.491V25.34C234.051 24.6333 234.864 24.28 235.931 24.28ZM237.511 31.12V27.28C237.511 26.7467 237.324 26.3267 236.951 26.02C236.578 25.7133 236.091 25.56 235.491 25.56C234.891 25.56 234.404 25.7133 234.031 26.02C233.671 26.3267 233.491 26.7467 233.491 27.28V31.12C233.491 31.68 233.671 32.1133 234.031 32.42C234.404 32.7133 234.898 32.86 235.511 32.86C236.098 32.86 236.578 32.7067 236.951 32.4C237.324 32.0933 237.511 31.6667 237.511 31.12ZM241.662 38.02V36.52H241.862C242.622 36.5067 243.162 36.3533 243.482 36.06C243.815 35.78 244.108 35.18 244.362 34.26L241.122 24.64H243.022L245.282 32.08L247.522 24.64H249.402L245.922 34.9C245.482 36.1533 245.008 36.9867 244.502 37.4C243.995 37.8133 243.122 38.02 241.882 38.02H241.662ZM256.555 34V20.8H261.275C262.581 20.8 263.621 21.14 264.395 21.82C265.181 22.5 265.575 23.4133 265.575 24.56V30.26C265.575 31.3933 265.181 32.3 264.395 32.98C263.621 33.66 262.581 34 261.275 34H256.555ZM258.335 32.46H261.355C262.088 32.46 262.675 32.24 263.115 31.8C263.555 31.3467 263.781 30.74 263.795 29.98V24.84C263.795 24.0667 263.568 23.46 263.115 23.02C262.675 22.5667 262.081 22.34 261.335 22.34H258.335V32.46ZM272.327 24.32C273.474 24.32 274.394 24.6067 275.087 25.18C275.78 25.7533 276.127 26.52 276.127 27.48V34H274.347V32.46C273.92 33.58 272.94 34.14 271.407 34.14C270.487 34.14 269.734 33.9267 269.147 33.5C268.56 33.06 268.267 32.4 268.267 31.52C268.267 30.6133 268.6 29.9067 269.267 29.4C269.947 28.8933 270.9 28.64 272.127 28.64H274.347V27.74C274.347 27.14 274.174 26.68 273.827 26.36C273.48 26.0267 272.98 25.86 272.327 25.86C271.767 25.86 271.307 25.98 270.947 26.22C270.6 26.4467 270.4 26.7533 270.347 27.14L268.567 26.92C268.634 26.16 269.014 25.54 269.707 25.06C270.4 24.5667 271.274 24.32 272.327 24.32ZM271.907 32.88C272.587 32.88 273.16 32.72 273.627 32.4C274.107 32.0667 274.347 31.5933 274.347 30.98V29.58H272.487C271.727 29.58 271.134 29.7333 270.707 30.04C270.28 30.3467 270.067 30.7733 270.067 31.32C270.067 31.8 270.227 32.18 270.547 32.46C270.867 32.74 271.32 32.88 271.907 32.88ZM283.65 24.4C284.143 24.4 284.536 24.5 284.83 24.7L284.51 26.38C284.23 26.2067 283.823 26.1467 283.29 26.2C282.743 26.2267 282.263 26.4533 281.85 26.88C281.45 27.2933 281.243 27.82 281.23 28.46V34H279.45V24.36H281.23V26.34C281.79 25.0467 282.596 24.4 283.65 24.4ZM286.418 33.96V20.8H288.198V28.42L291.898 24.44H293.938L291.318 27.48L294.318 33.96H292.418L290.078 28.6L288.198 30.72V33.96H286.418ZM300.861 34.24C299.501 34.24 298.375 33.8467 297.481 33.06C296.601 32.2733 296.161 31.34 296.161 30.26V24.7C296.161 23.62 296.601 22.6867 297.481 21.9C298.375 21.1 299.501 20.7 300.861 20.7C302.261 20.7 303.395 21.0933 304.261 21.88C305.128 22.6667 305.561 23.6067 305.561 24.7V25.06L303.741 25.16V24.52C303.728 23.9333 303.461 23.4067 302.941 22.94C302.421 22.46 301.728 22.22 300.861 22.22C300.035 22.22 299.348 22.46 298.801 22.94C298.255 23.42 297.981 23.9467 297.981 24.52V30.34C297.981 30.9133 298.255 31.4533 298.801 31.96C299.348 32.4667 300.035 32.72 300.861 32.72C301.728 32.72 302.421 32.4933 302.941 32.04C303.461 31.5733 303.728 31.0533 303.741 30.48L303.761 29.88L305.561 29.92V30.26C305.561 31.3667 305.141 32.3067 304.301 33.08C303.475 33.8533 302.328 34.24 300.861 34.24ZM309.819 32.46H311.359V34H308.039V20.8H309.819V32.46ZM315.553 22.58C315.326 22.82 315.046 22.94 314.713 22.94C314.38 22.94 314.093 22.82 313.853 22.58C313.613 22.34 313.493 22.0467 313.493 21.7C313.493 21.3667 313.606 21.0867 313.833 20.86C314.073 20.6333 314.366 20.52 314.713 20.52C315.046 20.52 315.326 20.6333 315.553 20.86C315.793 21.0867 315.913 21.3667 315.913 21.7C315.913 22.0467 315.793 22.34 315.553 22.58ZM313.773 34V24.36H315.573V34H313.773ZM326.66 29.9L320.4 29.92V30.58C320.4 31.18 320.62 31.6733 321.06 32.06C321.513 32.4467 322.053 32.64 322.68 32.64C323.227 32.64 323.713 32.5 324.14 32.22C324.567 31.94 324.827 31.58 324.92 31.14L326.48 31.46C326.333 32.2333 325.907 32.8733 325.2 33.38C324.493 33.8733 323.653 34.12 322.68 34.12C321.64 34.12 320.733 33.8133 319.96 33.2C319.2 32.5867 318.82 31.7333 318.82 30.64V27.78C318.82 26.7533 319.187 25.9067 319.92 25.24C320.667 24.5733 321.58 24.24 322.66 24.24C323.793 24.24 324.74 24.5733 325.5 25.24C326.273 25.8933 326.66 26.74 326.66 27.78V29.9ZM322.66 25.74C322.06 25.74 321.533 25.94 321.08 26.34C320.627 26.7267 320.4 27.2267 320.4 27.84V28.62L325 28.6V27.84C325 27.2133 324.773 26.7067 324.32 26.32C323.867 25.9333 323.313 25.74 322.66 25.74ZM333.704 24.28C334.757 24.28 335.564 24.5467 336.124 25.08C336.697 25.6133 336.984 26.3467 336.984 27.28V34H335.284V27.28C335.284 26.7467 335.097 26.3267 334.724 26.02C334.351 25.7133 333.864 25.56 333.264 25.56C332.664 25.56 332.177 25.7133 331.804 26.02C331.444 26.3267 331.264 26.7467 331.264 27.28V34H329.484V24.36H331.264V25.34C331.824 24.6333 332.637 24.28 333.704 24.28ZM344.513 25.9H342.213V30.98C342.213 31.5 342.326 31.8867 342.553 32.14C342.793 32.38 343.173 32.5 343.693 32.5H344.413V34C343.906 34.0267 343.553 34.04 343.353 34.04C342.366 34.04 341.646 33.8667 341.193 33.52C340.739 33.16 340.513 32.5333 340.513 31.64V25.9H339.093V24.56H340.513V21.96H342.213V24.56H344.513V25.9ZM355.569 24.32C356.716 24.32 357.636 24.6067 358.329 25.18C359.022 25.7533 359.369 26.52 359.369 27.48V34H357.589V32.46C357.162 33.58 356.182 34.14 354.649 34.14C353.729 34.14 352.976 33.9267 352.389 33.5C351.802 33.06 351.509 32.4 351.509 31.52C351.509 30.6133 351.842 29.9067 352.509 29.4C353.189 28.8933 354.142 28.64 355.369 28.64H357.589V27.74C357.589 27.14 357.416 26.68 357.069 26.36C356.722 26.0267 356.222 25.86 355.569 25.86C355.009 25.86 354.549 25.98 354.189 26.22C353.842 26.4467 353.642 26.7533 353.589 27.14L351.809 26.92C351.876 26.16 352.256 25.54 352.949 25.06C353.642 24.5667 354.516 24.32 355.569 24.32ZM355.149 32.88C355.829 32.88 356.402 32.72 356.869 32.4C357.349 32.0667 357.589 31.5933 357.589 30.98V29.58H355.729C354.969 29.58 354.376 29.7333 353.949 30.04C353.522 30.3467 353.309 30.7733 353.309 31.32C353.309 31.8 353.469 32.18 353.789 32.46C354.109 32.74 354.562 32.88 355.149 32.88ZM366.555 24.28C367.609 24.28 368.415 24.5467 368.975 25.08C369.549 25.6133 369.835 26.3467 369.835 27.28V34H368.135V27.28C368.135 26.7467 367.949 26.3267 367.575 26.02C367.202 25.7133 366.715 25.56 366.115 25.56C365.515 25.56 365.029 25.7133 364.655 26.02C364.295 26.3267 364.115 26.7467 364.115 27.28V34H362.335V24.36H364.115V25.34C364.675 24.6333 365.489 24.28 366.555 24.28ZM378.664 20.8H380.444V34H378.664V32.92C378.091 33.7467 377.231 34.16 376.084 34.16C375.031 34.16 374.218 33.8933 373.644 33.36C373.084 32.8267 372.804 32.0867 372.804 31.14V27.3C372.804 26.3667 373.091 25.6333 373.664 25.1C374.238 24.5533 375.038 24.28 376.064 24.28C377.238 24.28 378.104 24.6933 378.664 25.52V20.8ZM378.524 31.14V27.3C378.524 26.74 378.338 26.3133 377.964 26.02C377.604 25.7133 377.118 25.56 376.504 25.56C375.918 25.56 375.438 25.7133 375.064 26.02C374.691 26.3267 374.504 26.7533 374.504 27.3V31.14C374.504 31.6733 374.691 32.1 375.064 32.42C375.438 32.7267 375.924 32.88 376.524 32.88C377.111 32.88 377.591 32.7267 377.964 32.42C378.338 32.1 378.524 31.6733 378.524 31.14ZM397.266 22.34H390.346V26.6H395.166V28.12H390.346V32.46H397.266V34H388.566V20.8H397.266V22.34ZM401.499 32.46H403.039V34H399.719V20.8H401.499V32.46ZM417.85 20.8H419.63V33.96H417.93L411.85 24.02L411.87 33.96H410.09V20.8H411.81L417.87 30.78L417.85 20.8ZM424.889 22.58C424.662 22.82 424.382 22.94 424.049 22.94C423.716 22.94 423.429 22.82 423.189 22.58C422.949 22.34 422.829 22.0467 422.829 21.7C422.829 21.3667 422.942 21.0867 423.169 20.86C423.409 20.6333 423.702 20.52 424.049 20.52C424.382 20.52 424.662 20.6333 424.889 20.86C425.129 21.0867 425.249 21.3667 425.249 21.7C425.249 22.0467 425.129 22.34 424.889 22.58ZM423.109 34V24.36H424.909V34H423.109ZM433.77 23.08C435.05 23.08 436.017 23.3933 436.67 24.02C437.323 24.6333 437.65 25.6333 437.65 27.02V34H435.91V27.14C435.91 25.42 435.11 24.56 433.51 24.56C432.323 24.56 431.503 24.8933 431.05 25.56C430.597 26.2267 430.37 27.1867 430.37 28.44V34H428.61V23.28H430.03L430.29 24.74H430.39C430.737 24.18 431.217 23.7667 431.83 23.5C432.443 23.22 433.09 23.08 433.77 23.08ZM429.41 21.88C429.49 21.0933 429.717 20.4733 430.09 20.02C430.477 19.5533 430.983 19.32 431.61 19.32C432.01 19.32 432.383 19.42 432.73 19.62C433.09 19.8067 433.43 19.9933 433.75 20.18C434.07 20.3667 434.37 20.46 434.65 20.46C434.957 20.46 435.19 20.3667 435.35 20.18C435.523 19.98 435.657 19.6867 435.75 19.3H436.75C436.67 20.0733 436.443 20.6933 436.07 21.16C435.697 21.6267 435.197 21.86 434.57 21.86C434.197 21.86 433.83 21.7667 433.47 21.58C433.123 21.3933 432.783 21.2067 432.45 21.02C432.13 20.82 431.823 20.72 431.53 20.72C431.21 20.72 430.97 20.82 430.81 21.02C430.65 21.2067 430.523 21.4933 430.43 21.88H429.41ZM447.473 33.24C446.753 33.8533 445.82 34.16 444.673 34.16C443.527 34.16 442.587 33.8533 441.853 33.24C441.12 32.6133 440.753 31.8333 440.753 30.9V27.5C440.753 26.5933 441.127 25.8333 441.873 25.22C442.633 24.5933 443.567 24.28 444.673 24.28C445.78 24.28 446.707 24.5867 447.453 25.2C448.2 25.8133 448.573 26.58 448.573 27.5V30.9C448.573 31.8467 448.207 32.6267 447.473 33.24ZM443.033 32.2C443.433 32.56 443.98 32.74 444.673 32.74C445.367 32.74 445.907 32.56 446.293 32.2C446.68 31.84 446.873 31.3733 446.873 30.8V27.6C446.873 27.08 446.667 26.6333 446.253 26.26C445.84 25.8867 445.313 25.7 444.673 25.7C444.033 25.7 443.5 25.8867 443.073 26.26C442.66 26.6333 442.453 27.08 442.453 27.6V30.8C442.453 31.36 442.647 31.8267 443.033 32.2Z" fill="white"/>
</svg>
